IKResults
version=1
nRows=13
nColumns=38
inDegrees=yes

Units are S.I. units (second, meters, Newtons, ...)
Angles are in degrees.

endheader
time	pelvis_tilt	pelvis_list	pelvis_rotation	pelvis_tx	pelvis_ty	pelvis_tz	hip_flexion_r	hip_adduction_r	hip_rotation_r	knee_angle_r	ankle_angle_r	subtalar_angle_r	mtp_angle_r	hip_flexion_l	hip_adduction_l	hip_rotation_l	knee_angle_l	ankle_angle_l	subtalar_angle_l	mtp_angle_l	lumbar_extension	lumbar_bending	lumbar_rotation	arm_flex_r	arm_add_r	arm_rot_r	elbow_flex_r	pro_sup_r	wrist_flex_r	wrist_dev_r	arm_flex_l	arm_add_l	arm_rot_l	elbow_flex_l	pro_sup_l	wrist_flex_l	wrist_dev_l
      2.51000000	     -4.07643872	     -0.10149137	     -5.16220054	      0.68017612	      0.90851045	      0.57480384	      6.49180527	     -0.36417016	     -8.58107644	    -10.50487801	      3.43357434	     -4.86819321	     25.08631968	      3.64634683	     -2.75714897	     -8.61860455	     -6.78364243	      0.20609753	     -3.23794216	     -0.09233122	      4.74175542	     -0.69291917	      0.11998239	     10.92580374	    -65.36535630	     -1.21279426	     -3.15582372	     86.51662706	      0.00000000	      0.00000000	     16.49506492	    -70.20333143	      0.29160970	     -2.32120246	     85.94366927	      0.00000000	      0.00000000
      2.52000000	     -4.07440239	     -0.10094713	     -5.16502951	      0.68008932	      0.90854550	      0.57485782	      6.49916380	     -0.35860212	     -8.57801355	    -10.50889579	      3.42707431	     -4.86914321	     25.08702716	      3.64997399	     -2.76185182	     -8.61936069	     -6.78285477	      0.20406643	     -3.23847366	     -0.09404561	      4.74199929	     -0.70802381	      0.11404857	     10.94195763	    -65.49009921	     -1.20939550	     -3.14634543	     86.51662706	      0.00000000	      0.00000000	     16.49759747	    -70.22787531	      0.29481176	     -2.31264557	     85.94366927	      0.00000000	      0.00000000
      2.53000000	     -4.07696976	     -0.09762337	     -5.16427203	      0.68008039	      0.90856351	      0.57492586	      6.50389691	     -0.35593084	     -8.57806864	    -10.51197811	      3.41715958	     -4.87113027	     25.08809744	      3.65349230	     -2.76613711	     -8.61879203	     -6.78637624	      0.19980787	     -3.23615870	     -0.09569690	      4.74685281	     -0.72853609	      0.11552441	     10.96792894	    -65.69000784	     -1.19935987	     -3.11966968	     86.51662706	      0.00000000	      0.00000000	     16.50563673	    -70.28338177	      0.29960552	     -2.29871819	     85.94366927	      0.00000000	      0.00000000
      2.54000000	     -4.08143516	     -0.09914970	     -5.16807321	      0.67997956	      0.90856608	      0.57484633	      6.52004045	     -0.36097745	     -8.57711741	    -10.51125443	      3.40787512	     -4.87415582	     25.08932046	      3.66316141	     -2.75943929	     -8.61982208	     -6.77672909	      0.19028136	     -3.23328954	     -0.09842950	      4.73875697	     -0.72201796	      0.10794337	     11.00286567	    -65.89897050	     -1.18731907	     -3.08323548	     86.51662706	      0.00000000	      0.00000000	     16.51716119	    -70.32997858	      0.30719689	     -2.27596457	     85.94366927	      0.00000000	      0.00000000
      2.55000000	     -4.08165550	     -0.09782598	     -5.16923411	      0.67997246	      0.90859619	      0.57488675	      6.52121271	     -0.35737387	     -8.57404463	    -10.51734734	      3.39998113	     -4.87576092	     25.09021593	      3.66545530	     -2.76461430	     -8.62215487	     -6.78015349	      0.18829987	     -3.23414091	     -0.10044298	      4.74775964	     -0.74731518	      0.10358170	     11.03134951	    -66.06938957	     -1.17845380	     -3.05660988	     86.51662706	      0.00000000	      0.00000000	     16.52630054	    -70.35175292	      0.31086521	     -2.26302786	     85.94366927	      0.00000000	      0.00000000
      2.56000000	     -4.08217498	     -0.09177432	     -5.17408463	      0.67994700	      0.90859648	      0.57481617	      6.52670021	     -0.37004128	     -8.57532319	    -10.51618030	      3.39111152	     -4.88021964	     25.09126385	      3.67365278	     -2.75411029	     -8.62051425	     -6.79210536	      0.18464437	     -3.23195683	     -0.10289291	      4.75055058	     -0.74129739	      0.11095521	     11.07506315	    -66.26279596	     -1.16312741	     -3.00564759	     86.51662706	      0.00000000	      0.00000000	     16.54325368	    -70.37579685	      0.31565654	     -2.24253712	     85.94366927	      0.00000000	      0.00000000
      2.57000000	     -4.07561560	     -0.09958691	     -5.18999115	      0.67979450	      0.90860014	      0.57452068	      6.55508282	     -0.38933241	     -8.56250527	    -10.55041825	      3.37416395	     -4.88774507	     25.09254627	      3.68357593	     -2.73501075	     -8.63189745	     -6.80414831	      0.19781126	     -3.24123250	     -0.11622335	      4.74832090	     -0.67126719	      0.11897784	     11.21629533	    -66.52042385	     -1.13236019	     -2.84314996	     86.51662706	      0.00000000	      0.00000000	     16.58277068	    -70.28048266	      0.32648921	     -2.19625238	     85.94366927	      0.00000000	      0.00000000
      2.58000000	     -4.08225897	     -0.09634801	     -5.19819631	      0.67933744	      0.90867373	      0.57455344	      6.60170403	     -0.38641372	     -8.55436085	    -10.55050683	      3.35980862	     -4.88496359	     25.09374965	      3.72970817	     -2.74158421	     -8.62570382	     -6.80999382	      0.18752026	     -3.24069573	     -0.11928584	      4.67712017	     -0.68499515	      0.13433324	     11.26040357	    -66.61514037	     -1.11104994	     -2.76815767	     86.51662706	      0.00000000	      0.00000000	     16.60715184	    -70.31081941	      0.32833567	     -2.17862928	     85.94366927	      0.00000000	      0.00000000
      2.59000000	     -4.06904517	     -0.10205666	     -5.21364210	      0.67930339	      0.90870373	      0.57454339	      6.61109421	     -0.38141035	     -8.53512701	    -10.59409978	      3.33828250	     -4.88296804	     25.09557171	      3.73404188	     -2.74476877	     -8.63454057	     -6.84829461	      0.18125826	     -3.25093700	     -0.12334121	      4.69504516	     -0.71518940	      0.10416781	     11.30289516	    -66.80438349	     -1.12086332	     -2.77334078	     86.51662706	      0.00000000	      0.00000000	     16.62052167	    -70.37910452	      0.32456024	     -2.18612768	     85.94366927	      0.00000000	      0.00000000
      2.60000000	     -4.07731808	     -0.09744870	     -5.22594426	      0.67914740	      0.90868843	      0.57447596	      6.64035265	     -0.39167160	     -8.52902891	    -10.60660773	      3.32385820	     -4.88875140	     25.09750697	      3.76978618	     -2.73674073	     -8.64109946	     -6.87647599	      0.17661349	     -3.26266598	     -0.13096383	      4.67623160	     -0.70579031	      0.12617263	     11.41663721	    -66.98992613	     -1.11529477	     -2.69392516	     86.51662706	      0.00000000	      0.00000000	     16.65768103	    -70.36659369	      0.32636663	     -2.15932949	     85.94366927	      0.00000000	      0.00000000
      2.61000000	     -4.07400461	     -0.09878024	     -5.23931198	      0.67905492	      0.90874453	      0.57461877	      6.64635718	     -0.37826825	     -8.52707245	    -10.60973897	      3.32001439	     -4.88732900	     25.09784813	      3.76989748	     -2.75195681	     -8.64318670	     -6.88063566	      0.17588982	     -3.26604435	     -0.13196881	      4.68047585	     -0.74263465	      0.11217379	     11.42783204	    -67.04021729	     -1.11714761	     -2.69420515	     86.51662706	      0.00000000	      0.00000000	     16.66108290	    -70.36682336	      0.32581493	     -2.15889835	     85.94366927	      0.00000000	      0.00000000
      2.62000000	     -4.08349235	     -0.09520061	     -5.24196048	      0.67898360	      0.90867644	      0.57454942	      6.65960493	     -0.38787972	     -8.51704239	    -10.60759935	      3.30883309	     -4.88776824	     25.09968204	      3.79111216	     -2.74315108	     -8.65118238	     -6.89095942	      0.17092257	     -3.27398973	     -0.13797656	      4.68441545	     -0.73136322	      0.11904724	     11.50280891	    -67.21599288	     -1.11301618	     -2.64435303	     86.51662706	      0.00000000	      0.00000000	     16.68701642	    -70.40292901	      0.32503946	     -2.14917937	     85.94366927	      0.00000000	      0.00000000
      2.63000000	     -4.09779415	     -0.09310267	     -5.27731753	      0.67888115	      0.90865451	      0.57446905	      6.68202778	     -0.39847758	     -8.51303380	    -10.60628380	      3.29830015	     -4.86825320	     25.10213029	      3.82450312	     -2.73569461	     -8.67941728	     -6.91837970	      0.16689497	     -3.31319458	     -0.15719597	      4.72571302	     -0.69010852	      0.14860739	     11.69327250	    -67.36281317	     -1.01215388	     -2.26532883	     86.51662706	      0.00000000	      0.00000000	     16.77536741	    -70.31343012	      0.32698464	     -2.09243569	     85.94366927	      0.00000000	      0.00000000
